%TF.GenerationSoftware,KiCad,Pcbnew,9.0.2*%
%TF.CreationDate,2025-10-01T16:12:29+03:00*%
%TF.ProjectId,SolarMonitor_V1,536f6c61-724d-46f6-9e69-746f725f5631,rev?*%
%TF.SameCoordinates,Original*%
%TF.FileFunction,Copper,L3,Inr*%
%TF.FilePolarity,Positive*%
%FSLAX46Y46*%
G04 Gerber Fmt 4.6, Leading zero omitted, Abs format (unit mm)*
G04 Created by KiCad (PCBNEW 9.0.2) date 2025-10-01 16:12:29*
%MOMM*%
%LPD*%
G01*
G04 APERTURE LIST*
G04 Aperture macros list*
%AMRoundRect*
0 Rectangle with rounded corners*
0 $1 Rounding radius*
0 $2 $3 $4 $5 $6 $7 $8 $9 X,Y pos of 4 corners*
0 Add a 4 corners polygon primitive as box body*
4,1,4,$2,$3,$4,$5,$6,$7,$8,$9,$2,$3,0*
0 Add four circle primitives for the rounded corners*
1,1,$1+$1,$2,$3*
1,1,$1+$1,$4,$5*
1,1,$1+$1,$6,$7*
1,1,$1+$1,$8,$9*
0 Add four rect primitives between the rounded corners*
20,1,$1+$1,$2,$3,$4,$5,0*
20,1,$1+$1,$4,$5,$6,$7,0*
20,1,$1+$1,$6,$7,$8,$9,0*
20,1,$1+$1,$8,$9,$2,$3,0*%
G04 Aperture macros list end*
%TA.AperFunction,ComponentPad*%
%ADD10C,1.300000*%
%TD*%
%TA.AperFunction,ComponentPad*%
%ADD11R,2.500000X2.500000*%
%TD*%
%TA.AperFunction,ComponentPad*%
%ADD12C,1.900000*%
%TD*%
%TA.AperFunction,ComponentPad*%
%ADD13R,1.700000X1.700000*%
%TD*%
%TA.AperFunction,ComponentPad*%
%ADD14R,5.840000X3.500000*%
%TD*%
%TA.AperFunction,ComponentPad*%
%ADD15C,1.905000*%
%TD*%
%TA.AperFunction,ComponentPad*%
%ADD16C,2.000000*%
%TD*%
%TA.AperFunction,ComponentPad*%
%ADD17R,2.100000X2.100000*%
%TD*%
%TA.AperFunction,ComponentPad*%
%ADD18R,3.500000X5.840000*%
%TD*%
%TA.AperFunction,ComponentPad*%
%ADD19RoundRect,0.250000X-1.000000X1.000000X-1.000000X-1.000000X1.000000X-1.000000X1.000000X1.000000X0*%
%TD*%
%TA.AperFunction,ComponentPad*%
%ADD20C,2.500000*%
%TD*%
%TA.AperFunction,ComponentPad*%
%ADD21C,1.850000*%
%TD*%
%TA.AperFunction,ComponentPad*%
%ADD22C,4.500000*%
%TD*%
%TA.AperFunction,ComponentPad*%
%ADD23C,4.300000*%
%TD*%
%TA.AperFunction,ComponentPad*%
%ADD24C,1.800000*%
%TD*%
%TA.AperFunction,ComponentPad*%
%ADD25RoundRect,0.250000X-1.050000X1.050000X-1.050000X-1.050000X1.050000X-1.050000X1.050000X1.050000X0*%
%TD*%
%TA.AperFunction,ComponentPad*%
%ADD26C,2.600000*%
%TD*%
%TA.AperFunction,ViaPad*%
%ADD27C,0.600000*%
%TD*%
G04 APERTURE END LIST*
D10*
%TO.N,3V3*%
%TO.C,K2*%
X126472024Y-179620000D03*
X126472024Y-177080000D03*
%TO.N,/Conn2Lo*%
X126472024Y-172000000D03*
%TO.N,Net-(BRD4-OUT+-Pad1)*%
X126472024Y-166920000D03*
%TO.N,Net-(BRD6-VIN+)*%
X126472024Y-161840000D03*
%TO.N,Net-(BRD6-VOUT+)*%
X134092024Y-161840000D03*
%TO.N,Net-(BRD5-IN+-Pad3)*%
X134092024Y-166920000D03*
%TO.N,/Conn2Hi*%
X134092024Y-172000000D03*
%TO.N,/Conn2Reset*%
X134092024Y-177080000D03*
%TO.N,/Conn2Set*%
X134092024Y-179620000D03*
%TD*%
D11*
%TO.N,Net-(BRD1-OUT+-Pad1)*%
%TO.C,BRD1*%
X140800000Y-101775000D03*
X140800000Y-98275000D03*
%TO.N,GND*%
X140800000Y-90925000D03*
X140800000Y-87425000D03*
%TO.N,Net-(BRD1-IN+)*%
X163800000Y-101775000D03*
%TO.N,GND*%
X163800000Y-87425000D03*
%TD*%
%TO.N,Net-(BRD4-OUT+-Pad1)*%
%TO.C,BRD4*%
X140800000Y-160775000D03*
X140800000Y-157275000D03*
%TO.N,GND*%
X140800000Y-149925000D03*
X140800000Y-146425000D03*
%TO.N,Net-(BRD4-IN+)*%
X163800000Y-160775000D03*
%TO.N,GND*%
X163800000Y-146425000D03*
%TD*%
D12*
%TO.N,GND*%
%TO.C,BRD12*%
X61198000Y-178420845D03*
X61198000Y-175880845D03*
%TO.N,unconnected-(BRD12-19-Pad42)*%
X61198000Y-173340845D03*
%TO.N,unconnected-(BRD12-20-Pad41)*%
X61198000Y-170800845D03*
%TO.N,/MultiAdd3*%
X61198000Y-168260845D03*
%TO.N,/MultiAdd2*%
X61198000Y-165720845D03*
%TO.N,/MultiAdd1*%
X61198000Y-163180845D03*
%TO.N,/MultiAdd0*%
X61198000Y-160640845D03*
%TO.N,/MultiEn*%
X61198000Y-158100845D03*
%TO.N,unconnected-(BRD12-Pad35)*%
X61198000Y-155560845D03*
%TO.N,unconnected-(BRD12-36-Pad34)*%
X61198000Y-153020845D03*
%TO.N,unconnected-(BRD12-37-Pad33)*%
X61198000Y-150480845D03*
%TO.N,unconnected-(BRD12-38-Pad32)*%
X61198000Y-147940845D03*
%TO.N,/Conn2Set*%
X61198000Y-145400845D03*
%TO.N,/Conn2Reset*%
X61198000Y-142860845D03*
%TO.N,/Conn1Set*%
X61198000Y-140320845D03*
%TO.N,/Conn1Reset*%
X61198000Y-137780845D03*
%TO.N,unconnected-(BRD12-2-Pad27)*%
X61198000Y-135240845D03*
%TO.N,/AnaVoutMulti*%
X61198000Y-132700845D03*
%TO.N,unconnected-(BRD12-RX-Pad25)*%
X61198000Y-130160845D03*
%TO.N,unconnected-(BRD12-TX-Pad24)*%
X61198000Y-127620845D03*
D13*
%TO.N,GND*%
X61198000Y-125080845D03*
D12*
X35698000Y-178420845D03*
%TO.N,/5V*%
X35698000Y-175880845D03*
%TO.N,unconnected-(BRD12-14-Pad20)*%
X35698000Y-173340845D03*
%TO.N,unconnected-(BRD12-13-Pad19)*%
X35698000Y-170800845D03*
%TO.N,unconnected-(BRD12-12-Pad18)*%
X35698000Y-168260845D03*
%TO.N,unconnected-(BRD12-11-Pad17)*%
X35698000Y-165720845D03*
%TO.N,unconnected-(BRD12-10-Pad16)*%
X35698000Y-163180845D03*
%TO.N,/Current Meas & Solar/SCL*%
X35698000Y-160640845D03*
%TO.N,unconnected-(BRD12-46-Pad14)*%
X35698000Y-158100845D03*
%TO.N,unconnected-(BRD12-3-Pad13)*%
X35698000Y-155560845D03*
%TO.N,/Current Meas & Solar/SDA*%
X35698000Y-153020845D03*
%TO.N,unconnected-(BRD12-18-Pad11)*%
X35698000Y-150480845D03*
%TO.N,unconnected-(BRD12-17-Pad10)*%
X35698000Y-147940845D03*
%TO.N,unconnected-(BRD12-16-Pad9)*%
X35698000Y-145400845D03*
%TO.N,unconnected-(BRD12-15-Pad8)*%
X35698000Y-142860845D03*
%TO.N,unconnected-(BRD12-Pad7)*%
X35698000Y-140320845D03*
%TO.N,unconnected-(BRD12-Pad6)*%
X35698000Y-137780845D03*
%TO.N,unconnected-(BRD12-Pad5)*%
X35698000Y-135240845D03*
%TO.N,unconnected-(BRD12-Pad4)*%
X35698000Y-132700845D03*
%TO.N,unconnected-(BRD12-RST-Pad3)*%
X35698000Y-130160845D03*
%TO.N,3V3*%
X35698000Y-127620845D03*
D13*
X35698000Y-125080845D03*
%TD*%
D14*
%TO.N,Net-(BRD14-VIN+)*%
%TO.C,BRD14*%
X112100000Y-69160000D03*
%TO.N,GND*%
X112100000Y-62250000D03*
X142700000Y-62250000D03*
%TO.N,/ExtLoad+*%
X142700000Y-69160000D03*
%TD*%
D15*
%TO.N,GND*%
%TO.C,BRD2*%
X141600000Y-106700000D03*
X141600000Y-109240000D03*
%TO.N,Net-(BRD2-IN+-Pad3)*%
X141600000Y-117760000D03*
X141600000Y-120300000D03*
%TO.N,Net-(BRD1-IN+)*%
X161400000Y-120300000D03*
X161400000Y-117760000D03*
%TO.N,GND*%
X161400000Y-109240000D03*
X161400000Y-106700000D03*
%TD*%
D16*
%TO.N,Net-(BRD7-C15)*%
%TO.C,BRD7*%
X88868000Y-179700845D03*
%TO.N,Net-(BRD7-C14)*%
X88868000Y-177160845D03*
%TO.N,unconnected-(BRD7-C13-Pad3)*%
X88868000Y-174620845D03*
%TO.N,unconnected-(BRD7-C12-Pad4)*%
X88868000Y-172080845D03*
%TO.N,unconnected-(BRD7-C11-Pad5)*%
X88868000Y-169540845D03*
%TO.N,unconnected-(BRD7-C10-Pad6)*%
X88868000Y-167000845D03*
%TO.N,unconnected-(BRD7-C9-Pad7)*%
X88868000Y-164460845D03*
%TO.N,unconnected-(BRD7-C8-Pad8)*%
X88868000Y-161920845D03*
%TO.N,unconnected-(BRD7-C7-Pad9)*%
X88868000Y-159380845D03*
%TO.N,Net-(BRD7-C6)*%
X88868000Y-156840845D03*
%TO.N,Net-(BRD7-C5)*%
X88868000Y-154300845D03*
%TO.N,Net-(BRD7-C4)*%
X88868000Y-151760845D03*
%TO.N,Net-(BRD7-C3)*%
X88868000Y-149220845D03*
%TO.N,Net-(BRD7-C2)*%
X88868000Y-146680845D03*
%TO.N,Net-(BRD7-C1)*%
X88868000Y-144140845D03*
%TO.N,Net-(BRD7-C0)*%
X88868000Y-141600845D03*
%TO.N,/AnaVoutMulti*%
X73498000Y-169190845D03*
%TO.N,/MultiAdd3*%
X73498000Y-166650845D03*
%TO.N,/MultiAdd2*%
X73498000Y-164110845D03*
%TO.N,/MultiAdd1*%
X73498000Y-161570845D03*
%TO.N,/MultiAdd0*%
X73498000Y-159030845D03*
%TO.N,/MultiEn*%
X73498000Y-156490845D03*
%TO.N,3V3*%
X73498000Y-153950845D03*
D17*
%TO.N,GND*%
X73498000Y-151410845D03*
%TD*%
D18*
%TO.N,Net-(BRD3-VIN+)*%
%TO.C,BRD3*%
X119660000Y-120900000D03*
%TO.N,GND*%
X112750000Y-120900000D03*
X112750000Y-90300000D03*
%TO.N,Net-(BRD3-VOUT+)*%
X119660000Y-90300000D03*
%TD*%
D10*
%TO.N,GND*%
%TO.C,BRD13*%
X54575000Y-79175000D03*
%TO.N,3V3*%
X52035000Y-79175000D03*
%TO.N,/Current Meas & Solar/SCL*%
X49495000Y-79175000D03*
%TO.N,/Current Meas & Solar/SDA*%
X46955000Y-79175000D03*
%TD*%
D19*
%TO.N,GND*%
%TO.C,J1*%
X155000000Y-56420000D03*
D20*
%TO.N,/ExtLoad+*%
X155000000Y-61500000D03*
%TO.N,GND*%
X155000000Y-66580000D03*
%TO.N,/Battery+*%
X155000000Y-71660000D03*
%TO.N,GND*%
X155000000Y-76740000D03*
%TO.N,/SolarPanel+*%
X155000000Y-81820000D03*
%TD*%
D14*
%TO.N,/Current Meas & Solar/InternalLoad*%
%TO.C,BRD11*%
X147400000Y-130340000D03*
%TO.N,GND*%
X147400000Y-137250000D03*
X116800000Y-137250000D03*
%TO.N,/5V*%
X116800000Y-130340000D03*
%TD*%
D15*
%TO.N,GND*%
%TO.C,BRD5*%
X142600000Y-165700000D03*
X142600000Y-168240000D03*
%TO.N,Net-(BRD5-IN+-Pad3)*%
X142600000Y-176760000D03*
X142600000Y-179300000D03*
%TO.N,Net-(BRD4-IN+)*%
X162400000Y-179300000D03*
X162400000Y-176760000D03*
%TO.N,GND*%
X162400000Y-168240000D03*
X162400000Y-165700000D03*
%TD*%
D21*
%TO.N,unconnected-(BRD9-TC-Pad1)*%
%TO.C,BRD9*%
X74728000Y-126620845D03*
%TO.N,unconnected-(BRD9-WAR-Pad2)*%
X74728000Y-124080845D03*
%TO.N,unconnected-(BRD9-CRI-Pad3)*%
X74728000Y-121540845D03*
%TO.N,unconnected-(BRD9-PV-Pad4)*%
X74728000Y-119000845D03*
%TO.N,/Current Meas & Solar/SDA*%
X74728000Y-116460845D03*
%TO.N,/Current Meas & Solar/SCL*%
X74728000Y-113920845D03*
%TO.N,GND*%
X74728000Y-111380845D03*
D13*
%TO.N,3V3*%
X74728000Y-108840845D03*
D22*
X76198000Y-101090845D03*
%TO.N,GND*%
X81398000Y-101090845D03*
X86598000Y-101090845D03*
%TO.N,/Current Meas & Solar/InternalLoad*%
X101398000Y-102400845D03*
%TO.N,/Current Meas & Solar/BattHi*%
X101398000Y-107400845D03*
%TO.N,/Conn1Lo*%
X101398000Y-114400845D03*
%TO.N,/Current Meas & Solar/BattHi*%
X101398000Y-119400845D03*
%TO.N,/Conn2Lo*%
X101398000Y-126400845D03*
%TO.N,/Current Meas & Solar/BattHi*%
X101398000Y-131400845D03*
%TD*%
D21*
%TO.N,unconnected-(BRD8-TC-Pad1)*%
%TO.C,BRD8*%
X74528000Y-86430845D03*
%TO.N,unconnected-(BRD8-WAR-Pad2)*%
X74528000Y-83890845D03*
%TO.N,unconnected-(BRD8-CRI-Pad3)*%
X74528000Y-81350845D03*
%TO.N,unconnected-(BRD8-PV-Pad4)*%
X74528000Y-78810845D03*
%TO.N,/Current Meas & Solar/SDA*%
X74528000Y-76270845D03*
%TO.N,/Current Meas & Solar/SCL*%
X74528000Y-73730845D03*
%TO.N,GND*%
X74528000Y-71190845D03*
D13*
%TO.N,3V3*%
X74528000Y-68650845D03*
D22*
X75998000Y-60900845D03*
%TO.N,GND*%
X81198000Y-60900845D03*
X86398000Y-60900845D03*
%TO.N,/Current Meas & Solar/ExtLoadHi*%
X101198000Y-62210845D03*
%TO.N,Net-(BRD14-VIN+)*%
X101198000Y-67210845D03*
%TO.N,/Current Meas & Solar/BattHi*%
X101198000Y-74210845D03*
%TO.N,/Battery+*%
X101198000Y-79210845D03*
%TO.N,/Current Meas & Solar/SolarPanelHi*%
X101198000Y-86210845D03*
%TO.N,/SolarPanel+*%
X101198000Y-91210845D03*
%TD*%
D23*
%TO.N,/Current Meas & Solar/SolarPanelHi*%
%TO.C,BRD10*%
X38050000Y-105770000D03*
%TO.N,GND*%
X38050000Y-110850000D03*
X63050000Y-89290000D03*
%TO.N,/Current Meas & Solar/ExtLoadHi*%
X63050000Y-94370000D03*
%TO.N,/Current Meas & Solar/BattHi*%
X63050000Y-105770000D03*
%TO.N,GND*%
X63050000Y-110850000D03*
D24*
%TO.N,unconnected-(BRD10-+-Pad7)*%
X42850000Y-113950000D03*
%TO.N,unconnected-(BRD10---Pad8)*%
X45390000Y-113950000D03*
%TO.N,unconnected-(BRD10-D-Pad9)*%
X47930000Y-113950000D03*
%TO.N,unconnected-(BRD10-+-Pad10)*%
X50470000Y-113950000D03*
%TO.N,unconnected-(BRD10-C-Pad11)*%
X53030000Y-113950000D03*
%TD*%
D18*
%TO.N,Net-(BRD6-VIN+)*%
%TO.C,BRD6*%
X119500000Y-177500000D03*
%TO.N,GND*%
X112590000Y-177500000D03*
X112590000Y-146900000D03*
%TO.N,Net-(BRD6-VOUT+)*%
X119500000Y-146900000D03*
%TD*%
D10*
%TO.N,3V3*%
%TO.C,K1*%
X126770000Y-122800000D03*
X126770000Y-120260000D03*
%TO.N,/Conn1Lo*%
X126770000Y-115180000D03*
%TO.N,Net-(BRD1-OUT+-Pad1)*%
X126770000Y-110100000D03*
%TO.N,Net-(BRD3-VIN+)*%
X126770000Y-105020000D03*
%TO.N,Net-(BRD3-VOUT+)*%
X134390000Y-105020000D03*
%TO.N,Net-(BRD2-IN+-Pad3)*%
X134390000Y-110100000D03*
%TO.N,/Conn1Hi*%
X134390000Y-115180000D03*
%TO.N,/Conn1Reset*%
X134390000Y-120260000D03*
%TO.N,/Conn1Set*%
X134390000Y-122800000D03*
%TD*%
D25*
%TO.N,/Conn1Hi*%
%TO.C,J2*%
X157500000Y-125420000D03*
D26*
%TO.N,GND*%
X157500000Y-130500000D03*
%TO.N,/Conn2Hi*%
X157500000Y-135580000D03*
%TO.N,GND*%
X157500000Y-140660000D03*
%TD*%
D27*
%TO.N,GND*%
X95500000Y-150000000D03*
X95500000Y-141500000D03*
X95500000Y-159000000D03*
X95500000Y-144000000D03*
X95500000Y-156000000D03*
X95500000Y-147000000D03*
X95500000Y-153000000D03*
X95000000Y-178500000D03*
%TO.N,/Conn2Lo*%
X111500000Y-152410000D03*
%TO.N,/Conn1Lo*%
X118500000Y-154000000D03*
%TO.N,/Conn1Reset*%
X104504318Y-134004318D03*
%TO.N,/Conn1Set*%
X105500000Y-136000000D03*
%TO.N,/Conn1Hi*%
X116500000Y-154751000D03*
%TO.N,3V3*%
X104000000Y-181000000D03*
%TD*%
M02*
