M48
; DRILL file {KiCad 9.0.2} date 2025-10-01T16:12:20+0300
; FORMAT={-:-/ absolute / metric / decimal}
; #@! TF.CreationDate,2025-10-01T16:12:20+03:00
; #@! TF.GenerationSoftware,Kicad,Pcbnew,9.0.2
; #@! TF.FileFunction,Plated,1,4,PTH
FMAT,2
METRIC
; #@! TA.AperFunction,Plated,PTH,ViaDrill
T1C0.300
; #@! TA.AperFunction,Plated,PTH,ComponentDrill
T2C0.900
; #@! TA.AperFunction,Plated,PTH,ComponentDrill
T3C1.000
; #@! TA.AperFunction,Plated,PTH,ComponentDrill
T4C1.220
; #@! TA.AperFunction,Plated,PTH,ComponentDrill
T5C1.250
; #@! TA.AperFunction,Plated,PTH,ComponentDrill
T6C1.300
; #@! TA.AperFunction,Plated,PTH,ComponentDrill
T7C1.400
; #@! TA.AperFunction,Plated,PTH,ComponentDrill
T8C2.200
; #@! TA.AperFunction,Plated,PTH,ComponentDrill
T9C2.330
; #@! TA.AperFunction,Plated,PTH,ComponentDrill
T10C2.400
%
G90
G05
T1
X95.0Y-178.5
X95.5Y-141.5
X95.5Y-144.0
X95.5Y-147.0
X95.5Y-150.0
X95.5Y-153.0
X95.5Y-156.0
X95.5Y-159.0
X104.0Y-181.0
X104.504Y-134.004
X105.5Y-136.0
X111.5Y-152.41
X116.5Y-154.751
X118.5Y-154.0
T2
X46.955Y-79.175
X49.495Y-79.175
X52.035Y-79.175
X54.575Y-79.175
X126.472Y-161.84
X126.472Y-166.92
X126.472Y-172.0
X126.472Y-177.08
X126.472Y-179.62
X126.77Y-105.02
X126.77Y-110.1
X126.77Y-115.18
X126.77Y-120.26
X126.77Y-122.8
X134.092Y-161.84
X134.092Y-166.92
X134.092Y-172.0
X134.092Y-177.08
X134.092Y-179.62
X134.39Y-105.02
X134.39Y-110.1
X134.39Y-115.18
X134.39Y-120.26
X134.39Y-122.8
T3
X42.85Y-113.95
X45.39Y-113.95
X47.93Y-113.95
X50.47Y-113.95
X53.03Y-113.95
X73.498Y-151.411
X73.498Y-153.951
X73.498Y-156.491
X73.498Y-159.031
X73.498Y-161.571
X73.498Y-164.111
X73.498Y-166.651
X73.498Y-169.191
X88.868Y-141.601
X88.868Y-144.141
X88.868Y-146.681
X88.868Y-149.221
X88.868Y-151.761
X88.868Y-154.301
X88.868Y-156.841
X88.868Y-159.381
X88.868Y-161.921
X88.868Y-164.461
X88.868Y-167.001
X88.868Y-169.541
X88.868Y-172.081
X88.868Y-174.621
X88.868Y-177.161
X88.868Y-179.701
X141.6Y-106.7
X141.6Y-109.24
X141.6Y-117.76
X141.6Y-120.3
X142.6Y-165.7
X142.6Y-168.24
X142.6Y-176.76
X142.6Y-179.3
X161.4Y-106.7
X161.4Y-109.24
X161.4Y-117.76
X161.4Y-120.3
X162.4Y-165.7
X162.4Y-168.24
X162.4Y-176.76
X162.4Y-179.3
T4
X74.528Y-71.191
X74.528Y-73.731
X74.528Y-76.271
X74.528Y-78.811
X74.528Y-81.351
X74.528Y-83.891
X74.528Y-86.431
X74.728Y-111.381
X74.728Y-113.921
X74.728Y-116.461
X74.728Y-119.001
X74.728Y-121.541
X74.728Y-124.081
X74.728Y-126.621
T5
X74.528Y-68.651
X74.728Y-108.841
T6
X35.698Y-125.081
X35.698Y-127.621
X35.698Y-130.161
X35.698Y-132.701
X35.698Y-135.241
X35.698Y-137.781
X35.698Y-140.321
X35.698Y-142.861
X35.698Y-145.401
X35.698Y-147.941
X35.698Y-150.481
X35.698Y-153.021
X35.698Y-155.561
X35.698Y-158.101
X35.698Y-160.641
X35.698Y-163.181
X35.698Y-165.721
X35.698Y-168.261
X35.698Y-170.801
X35.698Y-173.341
X35.698Y-175.881
X35.698Y-178.421
X61.198Y-125.081
X61.198Y-127.621
X61.198Y-130.161
X61.198Y-132.701
X61.198Y-135.241
X61.198Y-137.781
X61.198Y-140.321
X61.198Y-142.861
X61.198Y-145.401
X61.198Y-147.941
X61.198Y-150.481
X61.198Y-153.021
X61.198Y-155.561
X61.198Y-158.101
X61.198Y-160.641
X61.198Y-163.181
X61.198Y-165.721
X61.198Y-168.261
X61.198Y-170.801
X61.198Y-173.341
X61.198Y-175.881
X61.198Y-178.421
X155.0Y-56.42
X155.0Y-61.5
X155.0Y-66.58
X155.0Y-71.66
X155.0Y-76.74
X155.0Y-81.82
X157.5Y-125.42
X157.5Y-130.5
X157.5Y-135.58
X157.5Y-140.66
T7
X140.8Y-87.425
X140.8Y-90.925
X140.8Y-98.275
X140.8Y-101.775
X140.8Y-146.425
X140.8Y-149.925
X140.8Y-157.275
X140.8Y-160.775
X163.8Y-87.425
X163.8Y-101.775
X163.8Y-146.425
X163.8Y-160.775
T8
X38.05Y-105.77
X38.05Y-110.85
X63.05Y-89.29
X63.05Y-94.37
X63.05Y-105.77
X63.05Y-110.85
T9
X112.1Y-62.25
X112.1Y-69.16
X112.59Y-146.9
X112.59Y-177.5
X112.75Y-90.3
X112.75Y-120.9
X116.8Y-130.34
X116.8Y-137.25
X119.5Y-146.9
X119.5Y-177.5
X119.66Y-90.3
X119.66Y-120.9
X142.7Y-62.25
X142.7Y-69.16
X147.4Y-130.34
X147.4Y-137.25
T10
X75.998Y-60.901
X76.198Y-101.091
X81.198Y-60.901
X81.398Y-101.091
X86.398Y-60.901
X86.598Y-101.091
X101.198Y-62.211
X101.198Y-67.211
X101.198Y-74.211
X101.198Y-79.211
X101.198Y-86.211
X101.198Y-91.211
X101.398Y-102.401
X101.398Y-107.401
X101.398Y-114.401
X101.398Y-119.401
X101.398Y-126.401
X101.398Y-131.401
M30
