%TF.GenerationSoftware,KiCad,Pcbnew,9.0.2*%
%TF.CreationDate,2025-10-01T16:12:29+03:00*%
%TF.ProjectId,SolarMonitor_V1,536f6c61-724d-46f6-9e69-746f725f5631,rev?*%
%TF.SameCoordinates,Original*%
%TF.FileFunction,Soldermask,Top*%
%TF.FilePolarity,Negative*%
%FSLAX46Y46*%
G04 Gerber Fmt 4.6, Leading zero omitted, Abs format (unit mm)*
G04 Created by KiCad (PCBNEW 9.0.2) date 2025-10-01 16:12:29*
%MOMM*%
%LPD*%
G01*
G04 APERTURE LIST*
G04 Aperture macros list*
%AMRoundRect*
0 Rectangle with rounded corners*
0 $1 Rounding radius*
0 $2 $3 $4 $5 $6 $7 $8 $9 X,Y pos of 4 corners*
0 Add a 4 corners polygon primitive as box body*
4,1,4,$2,$3,$4,$5,$6,$7,$8,$9,$2,$3,0*
0 Add four circle primitives for the rounded corners*
1,1,$1+$1,$2,$3*
1,1,$1+$1,$4,$5*
1,1,$1+$1,$6,$7*
1,1,$1+$1,$8,$9*
0 Add four rect primitives between the rounded corners*
20,1,$1+$1,$2,$3,$4,$5,0*
20,1,$1+$1,$4,$5,$6,$7,0*
20,1,$1+$1,$6,$7,$8,$9,0*
20,1,$1+$1,$8,$9,$2,$3,0*%
G04 Aperture macros list end*
%ADD10C,1.300000*%
%ADD11R,2.500000X2.500000*%
%ADD12C,1.900000*%
%ADD13R,1.700000X1.700000*%
%ADD14R,5.840000X3.500000*%
%ADD15C,1.905000*%
%ADD16RoundRect,0.250000X0.400000X0.625000X-0.400000X0.625000X-0.400000X-0.625000X0.400000X-0.625000X0*%
%ADD17C,2.000000*%
%ADD18R,2.100000X2.100000*%
%ADD19R,3.500000X5.840000*%
%ADD20RoundRect,0.250000X-1.000000X1.000000X-1.000000X-1.000000X1.000000X-1.000000X1.000000X1.000000X0*%
%ADD21C,2.500000*%
%ADD22C,1.850000*%
%ADD23C,4.500000*%
%ADD24C,4.300000*%
%ADD25C,1.800000*%
%ADD26RoundRect,0.250000X-1.050000X1.050000X-1.050000X-1.050000X1.050000X-1.050000X1.050000X1.050000X0*%
%ADD27C,2.600000*%
G04 APERTURE END LIST*
D10*
%TO.C,K2*%
X126472024Y-179620000D03*
X126472024Y-177080000D03*
X126472024Y-172000000D03*
X126472024Y-166920000D03*
X126472024Y-161840000D03*
X134092024Y-161840000D03*
X134092024Y-166920000D03*
X134092024Y-172000000D03*
X134092024Y-177080000D03*
X134092024Y-179620000D03*
%TD*%
D11*
%TO.C,BRD1*%
X140800000Y-101775000D03*
X140800000Y-98275000D03*
X140800000Y-90925000D03*
X140800000Y-87425000D03*
X163800000Y-101775000D03*
X163800000Y-87425000D03*
%TD*%
%TO.C,BRD4*%
X140800000Y-160775000D03*
X140800000Y-157275000D03*
X140800000Y-149925000D03*
X140800000Y-146425000D03*
X163800000Y-160775000D03*
X163800000Y-146425000D03*
%TD*%
D12*
%TO.C,BRD12*%
X61198000Y-178420845D03*
X61198000Y-175880845D03*
X61198000Y-173340845D03*
X61198000Y-170800845D03*
X61198000Y-168260845D03*
X61198000Y-165720845D03*
X61198000Y-163180845D03*
X61198000Y-160640845D03*
X61198000Y-158100845D03*
X61198000Y-155560845D03*
X61198000Y-153020845D03*
X61198000Y-150480845D03*
X61198000Y-147940845D03*
X61198000Y-145400845D03*
X61198000Y-142860845D03*
X61198000Y-140320845D03*
X61198000Y-137780845D03*
X61198000Y-135240845D03*
X61198000Y-132700845D03*
X61198000Y-130160845D03*
X61198000Y-127620845D03*
D13*
X61198000Y-125080845D03*
D12*
X35698000Y-178420845D03*
X35698000Y-175880845D03*
X35698000Y-173340845D03*
X35698000Y-170800845D03*
X35698000Y-168260845D03*
X35698000Y-165720845D03*
X35698000Y-163180845D03*
X35698000Y-160640845D03*
X35698000Y-158100845D03*
X35698000Y-155560845D03*
X35698000Y-153020845D03*
X35698000Y-150480845D03*
X35698000Y-147940845D03*
X35698000Y-145400845D03*
X35698000Y-142860845D03*
X35698000Y-140320845D03*
X35698000Y-137780845D03*
X35698000Y-135240845D03*
X35698000Y-132700845D03*
X35698000Y-130160845D03*
X35698000Y-127620845D03*
D13*
X35698000Y-125080845D03*
%TD*%
D14*
%TO.C,BRD14*%
X112100000Y-69160000D03*
X112100000Y-62250000D03*
X142700000Y-62250000D03*
X142700000Y-69160000D03*
%TD*%
D15*
%TO.C,BRD2*%
X141600000Y-106700000D03*
X141600000Y-109240000D03*
X141600000Y-117760000D03*
X141600000Y-120300000D03*
X161400000Y-120300000D03*
X161400000Y-117760000D03*
X161400000Y-109240000D03*
X161400000Y-106700000D03*
%TD*%
D16*
%TO.C,R14*%
X105550000Y-153000000D03*
X102450000Y-153000000D03*
%TD*%
%TO.C,R16*%
X105550000Y-141000000D03*
X102450000Y-141000000D03*
%TD*%
D17*
%TO.C,BRD7*%
X88868000Y-179700845D03*
X88868000Y-177160845D03*
X88868000Y-174620845D03*
X88868000Y-172080845D03*
X88868000Y-169540845D03*
X88868000Y-167000845D03*
X88868000Y-164460845D03*
X88868000Y-161920845D03*
X88868000Y-159380845D03*
X88868000Y-156840845D03*
X88868000Y-154300845D03*
X88868000Y-151760845D03*
X88868000Y-149220845D03*
X88868000Y-146680845D03*
X88868000Y-144140845D03*
X88868000Y-141600845D03*
X73498000Y-169190845D03*
X73498000Y-166650845D03*
X73498000Y-164110845D03*
X73498000Y-161570845D03*
X73498000Y-159030845D03*
X73498000Y-156490845D03*
X73498000Y-153950845D03*
D18*
X73498000Y-151410845D03*
%TD*%
D16*
%TO.C,R3*%
X100550000Y-179690845D03*
X97450000Y-179690845D03*
%TD*%
%TO.C,R10*%
X105550000Y-156000000D03*
X102450000Y-156000000D03*
%TD*%
%TO.C,R4*%
X105600000Y-159000000D03*
X102500000Y-159000000D03*
%TD*%
%TO.C,R7*%
X100550000Y-147000000D03*
X97450000Y-147000000D03*
%TD*%
%TO.C,R13*%
X100550000Y-144000000D03*
X97450000Y-144000000D03*
%TD*%
D19*
%TO.C,BRD3*%
X119660000Y-120900000D03*
X112750000Y-120900000D03*
X112750000Y-90300000D03*
X119660000Y-90300000D03*
%TD*%
D16*
%TO.C,R5*%
X100550000Y-159000000D03*
X97450000Y-159000000D03*
%TD*%
D10*
%TO.C,BRD13*%
X54575000Y-79175000D03*
X52035000Y-79175000D03*
X49495000Y-79175000D03*
X46955000Y-79175000D03*
%TD*%
D16*
%TO.C,R8*%
X105550000Y-177190845D03*
X102450000Y-177190845D03*
%TD*%
%TO.C,R11*%
X100550000Y-156000000D03*
X97450000Y-156000000D03*
%TD*%
D20*
%TO.C,J1*%
X155000000Y-56420000D03*
D21*
X155000000Y-61500000D03*
X155000000Y-66580000D03*
X155000000Y-71660000D03*
X155000000Y-76740000D03*
X155000000Y-81820000D03*
%TD*%
D16*
%TO.C,R9*%
X100550000Y-177190845D03*
X97450000Y-177190845D03*
%TD*%
D14*
%TO.C,BRD11*%
X147400000Y-130340000D03*
X147400000Y-137250000D03*
X116800000Y-137250000D03*
X116800000Y-130340000D03*
%TD*%
D15*
%TO.C,BRD5*%
X142600000Y-165700000D03*
X142600000Y-168240000D03*
X142600000Y-176760000D03*
X142600000Y-179300000D03*
X162400000Y-179300000D03*
X162400000Y-176760000D03*
X162400000Y-168240000D03*
X162400000Y-165700000D03*
%TD*%
D16*
%TO.C,R17*%
X105550000Y-179690845D03*
X102450000Y-179690845D03*
%TD*%
D22*
%TO.C,BRD9*%
X74728000Y-126620845D03*
X74728000Y-124080845D03*
X74728000Y-121540845D03*
X74728000Y-119000845D03*
X74728000Y-116460845D03*
X74728000Y-113920845D03*
X74728000Y-111380845D03*
D13*
X74728000Y-108840845D03*
D23*
X76198000Y-101090845D03*
X81398000Y-101090845D03*
X86598000Y-101090845D03*
X101398000Y-102400845D03*
X101398000Y-107400845D03*
X101398000Y-114400845D03*
X101398000Y-119400845D03*
X101398000Y-126400845D03*
X101398000Y-131400845D03*
%TD*%
D22*
%TO.C,BRD8*%
X74528000Y-86430845D03*
X74528000Y-83890845D03*
X74528000Y-81350845D03*
X74528000Y-78810845D03*
X74528000Y-76270845D03*
X74528000Y-73730845D03*
X74528000Y-71190845D03*
D13*
X74528000Y-68650845D03*
D23*
X75998000Y-60900845D03*
X81198000Y-60900845D03*
X86398000Y-60900845D03*
X101198000Y-62210845D03*
X101198000Y-67210845D03*
X101198000Y-74210845D03*
X101198000Y-79210845D03*
X101198000Y-86210845D03*
X101198000Y-91210845D03*
%TD*%
D16*
%TO.C,R12*%
X105550000Y-144000000D03*
X102450000Y-144000000D03*
%TD*%
D24*
%TO.C,BRD10*%
X38050000Y-105770000D03*
X38050000Y-110850000D03*
X63050000Y-89290000D03*
X63050000Y-94370000D03*
X63050000Y-105770000D03*
X63050000Y-110850000D03*
D25*
X42850000Y-113950000D03*
X45390000Y-113950000D03*
X47930000Y-113950000D03*
X50470000Y-113950000D03*
X53030000Y-113950000D03*
%TD*%
D16*
%TO.C,R20*%
X100550000Y-150000000D03*
X97450000Y-150000000D03*
%TD*%
%TO.C,R6*%
X105600000Y-147000000D03*
X102500000Y-147000000D03*
%TD*%
%TO.C,R19*%
X105550000Y-150000000D03*
X102450000Y-150000000D03*
%TD*%
%TO.C,R18*%
X100550000Y-141000000D03*
X97450000Y-141000000D03*
%TD*%
D19*
%TO.C,BRD6*%
X119500000Y-177500000D03*
X112590000Y-177500000D03*
X112590000Y-146900000D03*
X119500000Y-146900000D03*
%TD*%
D16*
%TO.C,R15*%
X100550000Y-153000000D03*
X97450000Y-153000000D03*
%TD*%
D10*
%TO.C,K1*%
X126770000Y-122800000D03*
X126770000Y-120260000D03*
X126770000Y-115180000D03*
X126770000Y-110100000D03*
X126770000Y-105020000D03*
X134390000Y-105020000D03*
X134390000Y-110100000D03*
X134390000Y-115180000D03*
X134390000Y-120260000D03*
X134390000Y-122800000D03*
%TD*%
D26*
%TO.C,J2*%
X157500000Y-125420000D03*
D27*
X157500000Y-130500000D03*
X157500000Y-135580000D03*
X157500000Y-140660000D03*
%TD*%
M02*
